%TF.GenerationSoftware,KiCad,Pcbnew,7.0.6*%
%TF.CreationDate,2023-08-24T23:01:40+03:00*%
%TF.ProjectId,P0101kbd,50303130-316b-4626-942e-6b696361645f,rev?*%
%TF.SameCoordinates,Original*%
%TF.FileFunction,Soldermask,Top*%
%TF.FilePolarity,Negative*%
%FSLAX46Y46*%
G04 Gerber Fmt 4.6, Leading zero omitted, Abs format (unit mm)*
G04 Created by KiCad (PCBNEW 7.0.6) date 2023-08-24 23:01:40*
%MOMM*%
%LPD*%
G01*
G04 APERTURE LIST*
%ADD10O,10.000000X7.000000*%
%ADD11C,4.000000*%
%ADD12C,2.200000*%
%ADD13R,1.800000X1.800000*%
%ADD14C,1.800000*%
%ADD15R,1.700000X1.700000*%
%ADD16O,1.700000X1.700000*%
G04 APERTURE END LIST*
D10*
%TO.C,OVH1*%
X180000000Y-135000000D03*
%TD*%
D11*
%TO.C,SW6*%
X235500000Y-38000000D03*
D12*
X232960000Y-43080000D03*
X239310000Y-40540000D03*
%TD*%
D11*
%TO.C,SW25*%
X76250000Y-56750000D03*
D12*
X73710000Y-61830000D03*
X80060000Y-59290000D03*
%TD*%
D11*
%TO.C,SW47*%
X85500000Y-75500000D03*
D12*
X82960000Y-80580000D03*
X89310000Y-78040000D03*
%TD*%
D11*
%TO.C,SW34*%
X198000000Y-75500000D03*
D12*
X195460000Y-80580000D03*
X201810000Y-78040000D03*
%TD*%
D11*
%TO.C,SW15*%
X216750000Y-38000000D03*
D12*
X214210000Y-43080000D03*
X220560000Y-40540000D03*
%TD*%
D11*
%TO.C,SW52*%
X94750000Y-94250000D03*
D12*
X92210000Y-99330000D03*
X98560000Y-96790000D03*
%TD*%
D11*
%TO.C,SW54*%
X362000000Y-94250000D03*
D12*
X359460000Y-99330000D03*
X365810000Y-96790000D03*
%TD*%
D11*
%TO.C,SW67*%
X343250000Y-94250000D03*
D12*
X340710000Y-99330000D03*
X347060000Y-96790000D03*
%TD*%
D11*
%TO.C,SW41*%
X113500000Y-94250000D03*
D12*
X110960000Y-99330000D03*
X117310000Y-96790000D03*
%TD*%
D11*
%TO.C,SW33*%
X113750000Y-56750000D03*
D12*
X111210000Y-61830000D03*
X117560000Y-59290000D03*
%TD*%
D11*
%TO.C,SW29*%
X170000000Y-56750000D03*
D12*
X167460000Y-61830000D03*
X173810000Y-59290000D03*
%TD*%
D11*
%TO.C,SW69*%
X343250000Y-113000000D03*
D12*
X340710000Y-118080000D03*
X347060000Y-115540000D03*
%TD*%
D11*
%TO.C,SW49*%
X188750000Y-56750000D03*
D12*
X186210000Y-61830000D03*
X192560000Y-59290000D03*
%TD*%
D11*
%TO.C,SW72*%
X239500000Y-113000000D03*
D12*
X236960000Y-118080000D03*
X243310000Y-115540000D03*
%TD*%
D11*
%TO.C,SW19*%
X254250000Y-38000000D03*
D12*
X251710000Y-43080000D03*
X258060000Y-40540000D03*
%TD*%
D11*
%TO.C,SW23*%
X123000000Y-75500000D03*
D12*
X120460000Y-80580000D03*
X126810000Y-78040000D03*
%TD*%
D11*
%TO.C,SW2*%
X267600000Y-113000000D03*
D12*
X265060000Y-118080000D03*
X271410000Y-115540000D03*
%TD*%
D11*
%TO.C,SW1*%
X48000000Y-75500000D03*
D12*
X45460000Y-80580000D03*
X51810000Y-78040000D03*
%TD*%
D11*
%TO.C,SW56*%
X38750000Y-56750000D03*
D12*
X36210000Y-61830000D03*
X42560000Y-59290000D03*
%TD*%
D11*
%TO.C,SW46*%
X188500000Y-94250000D03*
D12*
X185960000Y-99330000D03*
X192310000Y-96790000D03*
%TD*%
D11*
%TO.C,SW10*%
X123000000Y-38000000D03*
D12*
X120460000Y-43080000D03*
X126810000Y-40540000D03*
%TD*%
D11*
%TO.C,SW61*%
X273000000Y-38000000D03*
D12*
X270460000Y-43080000D03*
X276810000Y-40540000D03*
%TD*%
D11*
%TO.C,SW70*%
X218350000Y-113000000D03*
D12*
X215810000Y-118080000D03*
X222160000Y-115540000D03*
%TD*%
D11*
%TO.C,SW3*%
X68900000Y-113000000D03*
D12*
X66360000Y-118080000D03*
X72710000Y-115540000D03*
%TD*%
D11*
%TO.C,SW28*%
X66750000Y-75500000D03*
D12*
X64210000Y-80580000D03*
X70560000Y-78040000D03*
%TD*%
D11*
%TO.C,SW38*%
X141750000Y-75500000D03*
D12*
X139210000Y-80580000D03*
X145560000Y-78040000D03*
%TD*%
D11*
%TO.C,SW57*%
X343250000Y-38000000D03*
D12*
X340710000Y-43080000D03*
X347060000Y-40540000D03*
%TD*%
D11*
%TO.C,SW59*%
X343250000Y-56750000D03*
D12*
X340710000Y-61830000D03*
X347060000Y-59290000D03*
%TD*%
D11*
%TO.C,SW21*%
X263500000Y-94250000D03*
D12*
X260960000Y-99330000D03*
X267310000Y-96790000D03*
%TD*%
D11*
%TO.C,SW13*%
X179250000Y-38000000D03*
D12*
X176710000Y-43080000D03*
X183060000Y-40540000D03*
%TD*%
D11*
%TO.C,SW64*%
X301250000Y-56750000D03*
D12*
X298710000Y-61830000D03*
X305060000Y-59290000D03*
%TD*%
D10*
%TO.C,OVH2*%
X70000000Y-135000000D03*
%TD*%
D11*
%TO.C,SW16*%
X263750000Y-56750000D03*
D12*
X261210000Y-61830000D03*
X267560000Y-59290000D03*
%TD*%
D10*
%TO.C,OVH3*%
X287500000Y-135000000D03*
%TD*%
D11*
%TO.C,SW63*%
X282500000Y-56750000D03*
D12*
X279960000Y-61830000D03*
X286310000Y-59290000D03*
%TD*%
D11*
%TO.C,SW30*%
X245000000Y-56750000D03*
D12*
X242460000Y-61830000D03*
X248810000Y-59290000D03*
%TD*%
D11*
%TO.C,SW4*%
X57250000Y-94250000D03*
D12*
X54710000Y-99330000D03*
X61060000Y-96790000D03*
%TD*%
D11*
%TO.C,SW31*%
X151000000Y-94250000D03*
D12*
X148460000Y-99330000D03*
X154810000Y-96790000D03*
%TD*%
D11*
%TO.C,SW36*%
X151250000Y-56750000D03*
D12*
X148710000Y-61830000D03*
X155060000Y-59290000D03*
%TD*%
D11*
%TO.C,SW17*%
X48000000Y-38000000D03*
D12*
X45460000Y-43080000D03*
X51810000Y-40540000D03*
%TD*%
D10*
%TO.C,OVH4*%
X321500000Y-80000000D03*
%TD*%
D11*
%TO.C,SW62*%
X291750000Y-38000000D03*
D12*
X289210000Y-43080000D03*
X295560000Y-40540000D03*
%TD*%
D11*
%TO.C,SW32*%
X57500000Y-56750000D03*
D12*
X54960000Y-61830000D03*
X61310000Y-59290000D03*
%TD*%
D11*
%TO.C,SW22*%
X226000000Y-94250000D03*
D12*
X223460000Y-99330000D03*
X229810000Y-96790000D03*
%TD*%
D11*
%TO.C,SW45*%
X104250000Y-75500000D03*
D12*
X101710000Y-80580000D03*
X108060000Y-78040000D03*
%TD*%
D11*
%TO.C,SW39*%
X76000000Y-94250000D03*
D12*
X73460000Y-99330000D03*
X79810000Y-96790000D03*
%TD*%
D10*
%TO.C,OVH5*%
X180000000Y-15000000D03*
%TD*%
D11*
%TO.C,SW8*%
X85500000Y-38000000D03*
D12*
X82960000Y-43080000D03*
X89310000Y-40540000D03*
%TD*%
D11*
%TO.C,SW11*%
X141750000Y-38000000D03*
D12*
X139210000Y-43080000D03*
X145560000Y-40540000D03*
%TD*%
D11*
%TO.C,SW37*%
X179250000Y-75500000D03*
D12*
X176710000Y-80580000D03*
X183060000Y-78040000D03*
%TD*%
D11*
%TO.C,SW48*%
X226250000Y-56750000D03*
D12*
X223710000Y-61830000D03*
X230060000Y-59290000D03*
%TD*%
D11*
%TO.C,SW71*%
X118150000Y-113000000D03*
D12*
X115610000Y-118080000D03*
X121960000Y-115540000D03*
%TD*%
D10*
%TO.C,OVH6*%
X24000000Y-80000000D03*
%TD*%
D11*
%TO.C,SW27*%
X132500000Y-56750000D03*
D12*
X129960000Y-61830000D03*
X136310000Y-59290000D03*
%TD*%
D11*
%TO.C,SW58*%
X362040000Y-38000000D03*
D12*
X359500000Y-43080000D03*
X365850000Y-40540000D03*
%TD*%
D13*
%TO.C,D9*%
X36500000Y-18000000D03*
D14*
X39040000Y-18000000D03*
%TD*%
D15*
%TO.C,J1*%
X300736000Y-131000000D03*
D16*
X303276000Y-131000000D03*
X305816000Y-131000000D03*
X308356000Y-131000000D03*
X310896000Y-131000000D03*
X313436000Y-131000000D03*
X315976000Y-131000000D03*
X318516000Y-131000000D03*
X321056000Y-131000000D03*
X323596000Y-131000000D03*
X326136000Y-131000000D03*
X328676000Y-131000000D03*
X331216000Y-131000000D03*
X333756000Y-131000000D03*
X336296000Y-131000000D03*
X338836000Y-131000000D03*
X341376000Y-131000000D03*
X343916000Y-131000000D03*
X346456000Y-131000000D03*
X348996000Y-131000000D03*
X351536000Y-131000000D03*
X354076000Y-131000000D03*
X356616000Y-131000000D03*
X359156000Y-131000000D03*
X361696000Y-131000000D03*
X364236000Y-131000000D03*
X366776000Y-131000000D03*
X369316000Y-131000000D03*
X371856000Y-131000000D03*
X374396000Y-131000000D03*
%TD*%
D11*
%TO.C,SW51*%
X207500000Y-56750000D03*
D12*
X204960000Y-61830000D03*
X211310000Y-59290000D03*
%TD*%
D10*
%TO.C,OVH7*%
X386500000Y-15000000D03*
%TD*%
D11*
%TO.C,SW43*%
X95000000Y-56750000D03*
D12*
X92460000Y-61830000D03*
X98810000Y-59290000D03*
%TD*%
D13*
%TO.C,D10*%
X36500000Y-95000000D03*
D14*
X39040000Y-95000000D03*
%TD*%
D11*
%TO.C,SW18*%
X244750000Y-94250000D03*
D12*
X242210000Y-99330000D03*
X248560000Y-96790000D03*
%TD*%
D11*
%TO.C,SW66*%
X324500000Y-113000000D03*
D12*
X321960000Y-118080000D03*
X328310000Y-115540000D03*
%TD*%
D11*
%TO.C,SW55*%
X291750000Y-75500000D03*
D12*
X289210000Y-80580000D03*
X295560000Y-78040000D03*
%TD*%
D11*
%TO.C,SW9*%
X104250000Y-38000000D03*
D12*
X101710000Y-43080000D03*
X108060000Y-40540000D03*
%TD*%
D11*
%TO.C,SW7*%
X66750000Y-38000000D03*
D12*
X64210000Y-43080000D03*
X70560000Y-40540000D03*
%TD*%
D11*
%TO.C,SW50*%
X254250000Y-75500000D03*
D12*
X251710000Y-80580000D03*
X258060000Y-78040000D03*
%TD*%
D11*
%TO.C,SW26*%
X216750000Y-75500000D03*
D12*
X214210000Y-80580000D03*
X220560000Y-78040000D03*
%TD*%
D11*
%TO.C,SW44*%
X235500000Y-75500000D03*
D12*
X232960000Y-80580000D03*
X239310000Y-78040000D03*
%TD*%
D11*
%TO.C,SW5*%
X362040000Y-19250000D03*
D12*
X359500000Y-24330000D03*
X365850000Y-21790000D03*
%TD*%
D10*
%TO.C,OVH8*%
X70000000Y-15000000D03*
%TD*%
%TO.C,OVH9*%
X386500000Y-135000000D03*
%TD*%
D11*
%TO.C,SW40*%
X160500000Y-75500000D03*
D12*
X157960000Y-80580000D03*
X164310000Y-78040000D03*
%TD*%
D14*
%TO.C,BZ1*%
X321500000Y-53080000D03*
X313500000Y-53080000D03*
X332500000Y-43080000D03*
X302500000Y-43080000D03*
%TD*%
D11*
%TO.C,SW53*%
X168250000Y-113000000D03*
D12*
X165710000Y-118080000D03*
X172060000Y-115540000D03*
%TD*%
D11*
%TO.C,SW35*%
X132250000Y-94250000D03*
D12*
X129710000Y-99330000D03*
X136060000Y-96790000D03*
%TD*%
D11*
%TO.C,SW12*%
X160500000Y-38000000D03*
D12*
X157960000Y-43080000D03*
X164310000Y-40540000D03*
%TD*%
D11*
%TO.C,SW14*%
X198000000Y-38000000D03*
D12*
X195460000Y-43080000D03*
X201810000Y-40540000D03*
%TD*%
D11*
%TO.C,SW65*%
X282250000Y-94250000D03*
D12*
X279710000Y-99330000D03*
X286060000Y-96790000D03*
%TD*%
D10*
%TO.C,OVH10*%
X287500000Y-15000000D03*
%TD*%
D11*
%TO.C,SW42*%
X169750000Y-94250000D03*
D12*
X167210000Y-99330000D03*
X173560000Y-96790000D03*
%TD*%
D11*
%TO.C,SW60*%
X362040000Y-56750000D03*
D12*
X359500000Y-61830000D03*
X365850000Y-59290000D03*
%TD*%
D11*
%TO.C,SW20*%
X273000000Y-75500000D03*
D12*
X270460000Y-80580000D03*
X276810000Y-78040000D03*
%TD*%
D11*
%TO.C,SW24*%
X207250000Y-94250000D03*
D12*
X204710000Y-99330000D03*
X211060000Y-96790000D03*
%TD*%
D11*
%TO.C,SW73*%
X97000000Y-113000000D03*
D12*
X94460000Y-118080000D03*
X100810000Y-115540000D03*
%TD*%
D11*
%TO.C,SW68*%
X362000000Y-113000000D03*
D12*
X359460000Y-118080000D03*
X365810000Y-115540000D03*
%TD*%
M02*
