M48
; DRILL file {KiCad 7.0.6} date Thu Aug 24 23:02:09 2023
; FORMAT={-:-/ absolute / metric / decimal}
; #@! TF.CreationDate,2023-08-24T23:02:09+03:00
; #@! TF.GenerationSoftware,Kicad,Pcbnew,7.0.6
; #@! TF.FileFunction,MixedPlating,1,2
FMAT,2
METRIC
; #@! TA.AperFunction,Plated,PTH,ViaDrill
T1C0.400
; #@! TA.AperFunction,Plated,PTH,ComponentDrill
T2C0.900
; #@! TA.AperFunction,Plated,PTH,ComponentDrill
T3C1.000
; #@! TA.AperFunction,Plated,PTH,ComponentDrill
T4C1.500
; #@! TA.AperFunction,Plated,PTH,ComponentDrill
T5C3.500
; #@! TA.AperFunction,NonPlated,NPTH,ComponentDrill
T6C4.000
%
G90
G05
T1
X79.086Y-86.767
X122.0Y-61.5
X127.844Y-64.235
X132.042Y-64.351
X133.25Y-76.25
X142.0Y-62.0
X144.5Y-57.0
X144.75Y-87.75
X145.0Y-109.0
X145.0Y-117.0
X145.0Y-121.25
X148.5Y-48.5
X148.5Y-52.75
X149.842Y-59.456
X153.75Y-63.0
X157.678Y-83.204
X163.25Y-57.75
X172.5Y-63.0
X173.75Y-55.25
X178.373Y-84.302
X180.5Y-93.5
X182.25Y-57.75
X182.318Y-79.797
X184.5Y-93.5
X188.5Y-118.0
X190.965Y-90.436
X192.446Y-71.112
X192.954Y-83.879
X198.0Y-93.5
X203.0Y-107.0
X203.0Y-112.75
X203.0Y-118.0
X203.0Y-121.0
X207.5Y-66.25
X211.25Y-69.0
X211.25Y-79.0
X211.25Y-93.25
X216.5Y-95.5
X217.0Y-66.25
X226.0Y-66.25
X231.082Y-46.639
X231.25Y-53.0
X235.5Y-93.25
X240.25Y-53.0
X245.0Y-66.25
X246.5Y-89.5
X254.0Y-89.5
X254.25Y-58.25
X256.167Y-80.397
X258.5Y-54.75
X261.5Y-82.0
X263.081Y-90.053
X264.0Y-106.0
X266.5Y-108.5
X267.0Y-93.0
X269.5Y-105.5
X273.25Y-58.0
X274.0Y-93.0
X278.5Y-53.75
X290.582Y-101.504
X292.0Y-58.0
X294.149Y-82.305
X296.0Y-99.5
X296.0Y-101.5
X298.0Y-97.5
X300.0Y-95.5
X301.5Y-114.0
X302.0Y-93.5
X303.0Y-75.5
X305.0Y-114.0
X308.5Y-75.5
X308.5Y-121.0
X310.094Y-102.839
X311.193Y-116.993
X311.874Y-118.464
X313.5Y-75.5
X313.5Y-121.0
X324.0Y-121.0
X324.0Y-127.0
X325.321Y-128.243
X327.5Y-127.0
X328.5Y-104.0
X331.241Y-102.239
X331.5Y-104.0
X335.5Y-85.5
X335.5Y-88.5
X335.5Y-92.5
X335.5Y-104.0
X337.5Y-127.0
X339.5Y-104.0
X341.0Y-127.0
X341.5Y-109.5
X343.0Y-120.0
X343.147Y-60.848
X343.5Y-104.0
X344.5Y-123.5
X345.5Y-52.0
X346.621Y-127.799
X347.135Y-117.297
T2
X36.5Y-18.0
X36.5Y-95.0
X39.04Y-18.0
X39.04Y-95.0
T3
X300.736Y-131.0
X302.5Y-43.08
X303.276Y-131.0
X305.816Y-131.0
X308.356Y-131.0
X310.896Y-131.0
X313.436Y-131.0
X313.5Y-53.08
X315.976Y-131.0
X318.516Y-131.0
X321.056Y-131.0
X321.5Y-53.08
X323.596Y-131.0
X326.136Y-131.0
X328.676Y-131.0
X331.216Y-131.0
X332.5Y-43.08
X333.756Y-131.0
X336.296Y-131.0
X338.836Y-131.0
X341.376Y-131.0
X343.916Y-131.0
X346.456Y-131.0
X348.996Y-131.0
X351.536Y-131.0
X354.076Y-131.0
X356.616Y-131.0
X359.156Y-131.0
X361.696Y-131.0
X364.236Y-131.0
X366.776Y-131.0
X369.316Y-131.0
X371.856Y-131.0
X374.396Y-131.0
T4
X36.21Y-61.83
X42.56Y-59.29
X45.46Y-43.08
X45.46Y-80.58
X51.81Y-40.54
X51.81Y-78.04
X54.71Y-99.33
X54.96Y-61.83
X61.06Y-96.79
X61.31Y-59.29
X64.21Y-43.08
X64.21Y-80.58
X66.36Y-118.08
X70.56Y-40.54
X70.56Y-78.04
X72.71Y-115.54
X73.46Y-99.33
X73.71Y-61.83
X79.81Y-96.79
X80.06Y-59.29
X82.96Y-43.08
X82.96Y-80.58
X89.31Y-40.54
X89.31Y-78.04
X92.21Y-99.33
X92.46Y-61.83
X94.46Y-118.08
X98.56Y-96.79
X98.81Y-59.29
X100.81Y-115.54
X101.71Y-43.08
X101.71Y-80.58
X108.06Y-40.54
X108.06Y-78.04
X110.96Y-99.33
X111.21Y-61.83
X115.61Y-118.08
X117.31Y-96.79
X117.56Y-59.29
X120.46Y-43.08
X120.46Y-80.58
X121.96Y-115.54
X126.81Y-40.54
X126.81Y-78.04
X129.71Y-99.33
X129.96Y-61.83
X136.06Y-96.79
X136.31Y-59.29
X139.21Y-43.08
X139.21Y-80.58
X145.56Y-40.54
X145.56Y-78.04
X148.46Y-99.33
X148.71Y-61.83
X154.81Y-96.79
X155.06Y-59.29
X157.96Y-43.08
X157.96Y-80.58
X164.31Y-40.54
X164.31Y-78.04
X165.71Y-118.08
X167.21Y-99.33
X167.46Y-61.83
X172.06Y-115.54
X173.56Y-96.79
X173.81Y-59.29
X176.71Y-43.08
X176.71Y-80.58
X183.06Y-40.54
X183.06Y-78.04
X185.96Y-99.33
X186.21Y-61.83
X192.31Y-96.79
X192.56Y-59.29
X195.46Y-43.08
X195.46Y-80.58
X201.81Y-40.54
X201.81Y-78.04
X204.71Y-99.33
X204.96Y-61.83
X211.06Y-96.79
X211.31Y-59.29
X214.21Y-43.08
X214.21Y-80.58
X215.81Y-118.08
X220.56Y-40.54
X220.56Y-78.04
X222.16Y-115.54
X223.46Y-99.33
X223.71Y-61.83
X229.81Y-96.79
X230.06Y-59.29
X232.96Y-43.08
X232.96Y-80.58
X236.96Y-118.08
X239.31Y-40.54
X239.31Y-78.04
X242.21Y-99.33
X242.46Y-61.83
X243.31Y-115.54
X248.56Y-96.79
X248.81Y-59.29
X251.71Y-43.08
X251.71Y-80.58
X258.06Y-40.54
X258.06Y-78.04
X260.96Y-99.33
X261.21Y-61.83
X265.06Y-118.08
X267.31Y-96.79
X267.56Y-59.29
X270.46Y-43.08
X270.46Y-80.58
X271.41Y-115.54
X276.81Y-40.54
X276.81Y-78.04
X279.71Y-99.33
X279.96Y-61.83
X286.06Y-96.79
X286.31Y-59.29
X289.21Y-43.08
X289.21Y-80.58
X295.56Y-40.54
X295.56Y-78.04
X298.71Y-61.83
X305.06Y-59.29
X321.96Y-118.08
X328.31Y-115.54
X340.71Y-43.08
X340.71Y-61.83
X340.71Y-99.33
X340.71Y-118.08
X347.06Y-40.54
X347.06Y-59.29
X347.06Y-96.79
X347.06Y-115.54
X359.46Y-99.33
X359.46Y-118.08
X359.5Y-24.33
X359.5Y-43.08
X359.5Y-61.83
X365.81Y-96.79
X365.81Y-115.54
X365.85Y-21.79
X365.85Y-40.54
X365.85Y-59.29
T6
X38.75Y-56.75
X48.0Y-38.0
X48.0Y-75.5
X57.25Y-94.25
X57.5Y-56.75
X66.75Y-38.0
X66.75Y-75.5
X68.9Y-113.0
X76.0Y-94.25
X76.25Y-56.75
X85.5Y-38.0
X85.5Y-75.5
X94.75Y-94.25
X95.0Y-56.75
X97.0Y-113.0
X104.25Y-38.0
X104.25Y-75.5
X113.5Y-94.25
X113.75Y-56.75
X118.15Y-113.0
X123.0Y-38.0
X123.0Y-75.5
X132.25Y-94.25
X132.5Y-56.75
X141.75Y-38.0
X141.75Y-75.5
X151.0Y-94.25
X151.25Y-56.75
X160.5Y-38.0
X160.5Y-75.5
X168.25Y-113.0
X169.75Y-94.25
X170.0Y-56.75
X179.25Y-38.0
X179.25Y-75.5
X188.5Y-94.25
X188.75Y-56.75
X198.0Y-38.0
X198.0Y-75.5
X207.25Y-94.25
X207.5Y-56.75
X216.75Y-38.0
X216.75Y-75.5
X218.35Y-113.0
X226.0Y-94.25
X226.25Y-56.75
X235.5Y-38.0
X235.5Y-75.5
X239.5Y-113.0
X244.75Y-94.25
X245.0Y-56.75
X254.25Y-38.0
X254.25Y-75.5
X263.5Y-94.25
X263.75Y-56.75
X267.6Y-113.0
X273.0Y-38.0
X273.0Y-75.5
X282.25Y-94.25
X282.5Y-56.75
X291.75Y-38.0
X291.75Y-75.5
X301.25Y-56.75
X324.5Y-113.0
X343.25Y-38.0
X343.25Y-56.75
X343.25Y-94.25
X343.25Y-113.0
X362.0Y-94.25
X362.0Y-113.0
X362.04Y-19.25
X362.04Y-38.0
X362.04Y-56.75
T5
G00X22.5Y-80.0
M15
G01X25.5Y-80.0
M16
G05
G00X68.5Y-15.0
M15
G01X71.5Y-15.0
M16
G05
G00X68.5Y-135.0
M15
G01X71.5Y-135.0
M16
G05
G00X178.5Y-15.0
M15
G01X181.5Y-15.0
M16
G05
G00X178.5Y-135.0
M15
G01X181.5Y-135.0
M16
G05
G00X286.0Y-15.0
M15
G01X289.0Y-15.0
M16
G05
G00X286.0Y-135.0
M15
G01X289.0Y-135.0
M16
G05
G00X320.0Y-80.0
M15
G01X323.0Y-80.0
M16
G05
G00X385.0Y-15.0
M15
G01X388.0Y-15.0
M16
G05
G00X385.0Y-135.0
M15
G01X388.0Y-135.0
M16
G05
T0
M30
